# xmcd
#
# Track frame offsets: 
#        150
#        12679
#        24013
#        34911
#        47415
#        59047
#        70952
#        82987
#        94847
#        106641
#        119173
#        132979
#        144958
#        158241
#        167004
#        178520
#        191091
#        203524
#        215564
#        226787
#        237335
#        248594
#        259094
#        269424
#
# Disc length: 3731 seconds
#
# Revision: 0
# Processed by: cddbd v1.5.2PL0 Copyright (c) Steve Scherf et al.
# Submitted via: ExactAudioCopyFreeDBPlugin 1.0
#
DISCID=4c0e9118
DTITLE=Arthur Gunter - Baby Let's Play House: The Complete Excello Sin
DTITLE=gles 1954-1961
DYEAR=2016
DGENRE=Blues
TTITLE0=Baby Let's Play House
TTITLE1=Blues After Hours
TTITLE2=She's Mine All Mine
TTITLE3=You Are Doing Me Wrong
TTITLE4=Honey Babe
TTITLE5=No Happy Home
TTITLE6=Trouble With My Baby
TTITLE7=Baby You Better Listen
TTITLE8=Hear My Plea Baby
TTITLE9=Love Has Got Me
TTITLE10=Baby Can't You See
TTITLE11=You're Always On My Mind
TTITLE12=Ludella
TTITLE13=We're Gonna Shake
TTITLE14=Don't Leave Me Now
TTITLE15=Crazy Me
TTITLE16=No Naggin', No Draggin'
TTITLE17=I Want Her Back
TTITLE18=Little Blue Jeans Woman
TTITLE19=Mind You Own Business Babe
TTITLE20=My Heart's Always Lonesome
TTITLE21=I'm Fallin', Love's Got Me
TTITLE22=Who Will Ever Move Me From You
TTITLE23=Workin' For My Baby
EXTD=
EXTT0=
EXTT1=
EXTT2=
EXTT3=
EXTT4=
EXTT5=
EXTT6=
EXTT7=
EXTT8=
EXTT9=
EXTT10=
EXTT11=
EXTT12=
EXTT13=
EXTT14=
EXTT15=
EXTT16=
EXTT17=
EXTT18=
EXTT19=
EXTT20=
EXTT21=
EXTT22=
EXTT23=
PLAYORDER=
